<svg width="40" height="40" viewBox="0 0 40 40" fill="none" xmlns="http://www.w3.org/2000/svg">
<path d="M29.0571 15.1807C29.0664 15.3919 29.0664 15.5935 29.0664 15.8047C29.0756 22.2079 24.3712 29.5999 15.7679 29.5999C13.2305 29.5999 10.7393 28.8415 8.6001 27.4207C8.97053 27.4687 9.34096 27.4879 9.71139 27.4879C11.8136 27.4879 13.8602 26.7583 15.5179 25.4047C13.5176 25.3663 11.758 24.0127 11.1468 22.0351C11.8506 22.1791 12.573 22.1503 13.2583 21.9487C11.082 21.5071 9.51691 19.5199 9.50765 17.2063C9.50765 17.1871 9.50765 17.1679 9.50765 17.1487C10.1559 17.5231 10.8875 17.7343 11.6284 17.7535C9.58174 16.3327 8.94275 13.5007 10.1837 11.283C12.5637 14.3167 16.0643 16.1503 19.8241 16.3519C19.4445 14.6719 19.9631 12.9054 21.1762 11.715C23.0561 9.88144 26.0196 9.97744 27.7977 11.9262C28.8441 11.715 29.8535 11.3118 30.7704 10.7454C30.4185 11.8686 29.6869 12.819 28.7145 13.4239C29.6406 13.3087 30.5481 13.0494 31.4001 12.6654C30.7704 13.6447 29.9739 14.4895 29.0571 15.1807Z" fill="#B5B9E7"/>
</svg>
