<svg width="40" height="40" viewBox="0 0 40 40" fill="none" xmlns="http://www.w3.org/2000/svg">
<path d="M30.8002 20.1815C30.8002 18.7961 29.7373 17.6716 28.4276 17.6716C27.7823 17.6716 27.2129 17.9327 26.7953 18.3744C25.1819 17.1496 22.9422 16.3465 20.4747 16.2461L21.5566 10.885L25.068 11.6681C25.106 12.6118 25.8462 13.3748 26.7573 13.3748C27.6874 13.3748 28.4466 12.5716 28.4466 11.5878C28.4466 10.6039 27.6874 9.80078 26.7573 9.80078C26.093 9.80078 25.5236 10.2024 25.2578 10.8047L21.3288 9.92125C21.215 9.90118 21.1011 9.92125 21.0062 9.98149C20.9113 10.0417 20.8543 10.1421 20.8164 10.2626L19.6206 16.2461C17.0962 16.3264 14.8375 17.1094 13.2051 18.3744C12.7875 17.9527 12.1991 17.6716 11.5728 17.6716C10.2631 17.6716 9.2002 18.7961 9.2002 20.1815C9.2002 21.2055 9.76962 22.0689 10.6048 22.4705C10.5668 22.7114 10.5478 22.9724 10.5478 23.2335C10.5478 27.0886 14.7805 30.2008 20.0192 30.2008C25.2578 30.2008 29.4905 27.0886 29.4905 23.2335C29.4905 22.9724 29.4715 22.7315 29.4336 22.4905C30.2118 22.089 30.8002 21.2055 30.8002 20.1815ZM14.5717 21.9685C14.5717 20.9846 15.331 20.1815 16.261 20.1815C17.1911 20.1815 17.9503 20.9846 17.9503 21.9685C17.9503 22.9524 17.1911 23.7555 16.261 23.7555C15.331 23.7555 14.5717 22.9524 14.5717 21.9685ZM24.0051 26.687C22.8473 27.9118 20.6455 27.9921 20.0002 27.9921C19.3549 27.9921 17.1341 27.8917 15.9953 26.687C15.8244 26.5063 15.8244 26.2051 15.9953 26.0244C16.1661 25.8437 16.4508 25.8437 16.6216 26.0244C17.3429 26.7874 18.8993 27.0685 20.0192 27.0685C21.139 27.0685 22.6765 26.7874 23.4167 26.0244C23.5875 25.8437 23.8723 25.8437 24.0431 26.0244C24.1759 26.2252 24.1759 26.5063 24.0051 26.687ZM23.7014 23.7555C22.7714 23.7555 22.0121 22.9524 22.0121 21.9685C22.0121 20.9846 22.7714 20.1815 23.7014 20.1815C24.6315 20.1815 25.3907 20.9846 25.3907 21.9685C25.3907 22.9524 24.6315 23.7555 23.7014 23.7555Z" fill="#B5B9E7"/>
</svg>
