<svg width="40" height="40" viewBox="0 0 40 40" fill="none" xmlns="http://www.w3.org/2000/svg">
<path d="M31.933 15.052C31.8754 13.7742 31.669 12.8999 31.3761 12.1361C31.0689 11.3483 30.6608 10.6757 29.9934 10.0128C29.3261 9.34988 28.6588 8.93195 27.8714 8.6293C27.1081 8.33147 26.2343 8.1297 24.9572 8.07206C23.6754 8.01441 23.2673 8 20.0122 8C16.7524 8 16.3443 8.01441 15.0673 8.07206C13.7902 8.1297 12.9164 8.33627 12.1531 8.6293C11.3609 8.93675 10.6888 9.34508 10.0263 10.0128C9.36372 10.6805 8.94603 11.3483 8.64357 12.1361C8.35072 12.8999 8.14427 13.7742 8.08666 15.052C8.02905 16.3347 8.01465 16.743 8.01465 20C8.01465 23.2618 8.02905 23.6701 8.08666 24.948C8.14427 26.2258 8.35072 27.1001 8.64357 27.8639C8.95084 28.6517 9.35892 29.3243 10.0263 29.9872C10.6888 30.6549 11.3609 31.0681 12.1483 31.3707C12.9116 31.6685 13.7854 31.8703 15.0625 31.9279C16.3443 31.9856 16.7524 32 20.0074 32C23.2673 32 23.6754 31.9856 24.9524 31.9279C26.2295 31.8703 27.1033 31.6637 27.8666 31.3707C28.654 31.0633 29.3261 30.6549 29.9886 29.9872C30.6512 29.3195 31.0689 28.6517 31.3713 27.8639C31.669 27.1001 31.8706 26.2258 31.9282 24.948C31.9858 23.6653 32.0002 23.257 32.0002 20C32.0002 16.743 31.9906 16.3299 31.933 15.052ZM29.7774 24.8519C29.7246 26.024 29.5278 26.6629 29.3645 27.0809C29.1485 27.6381 28.8844 28.0416 28.4619 28.4644C28.0395 28.8871 27.641 29.1417 27.0793 29.3675C26.6568 29.5308 26.0182 29.7278 24.8516 29.7806C23.589 29.8383 23.2097 29.8527 20.0026 29.8527C16.7956 29.8527 16.4163 29.8383 15.1537 29.7806C13.9822 29.7278 13.3437 29.5308 12.926 29.3675C12.3691 29.1513 11.9658 28.8871 11.5434 28.4644C11.1209 28.0416 10.8664 27.6429 10.6408 27.0809C10.4775 26.6581 10.2807 26.0192 10.2279 24.8519C10.1703 23.5885 10.1559 23.209 10.1559 20C10.1559 16.791 10.1703 16.4115 10.2279 15.1481C10.2807 13.976 10.4775 13.3371 10.6408 12.9191C10.8568 12.3619 11.1209 11.9584 11.5434 11.5356C11.9658 11.1129 12.3643 10.8583 12.926 10.6325C13.3485 10.4692 13.987 10.2722 15.1537 10.2194C16.4163 10.1617 16.7956 10.1473 20.0026 10.1473C23.2097 10.1473 23.589 10.1617 24.8516 10.2194C26.0231 10.2722 26.6616 10.4692 27.0793 10.6325C27.6362 10.8487 28.0395 11.1129 28.4619 11.5356C28.8844 11.9584 29.1389 12.3571 29.3645 12.9191C29.5278 13.3419 29.7246 13.9808 29.7774 15.1481C29.835 16.4115 29.8494 16.791 29.8494 20C29.8494 23.209 29.8302 23.5885 29.7774 24.8519Z" fill="#B5B9E7"/>
<path d="M20.0028 13.8318C16.5941 13.8318 13.8384 16.594 13.8384 19.9999C13.8384 23.4107 16.5989 26.1681 20.0028 26.1681C23.4067 26.1681 26.1672 23.401 26.1672 19.9999C26.1672 16.5892 23.4115 13.8318 20.0028 13.8318ZM20.0028 24.0015C17.7944 24.0015 16.0036 22.2097 16.0036 19.9999C16.0036 17.7902 17.7944 15.9983 20.0028 15.9983C22.2113 15.9983 24.002 17.7902 24.002 19.9999C24.002 22.2097 22.2113 24.0015 20.0028 24.0015Z" fill="#B5B9E7"/>
<path d="M26.4071 15.0329C27.2025 15.0329 27.8474 14.3877 27.8474 13.5918C27.8474 12.7959 27.2025 12.1506 26.4071 12.1506C25.6116 12.1506 24.9668 12.7959 24.9668 13.5918C24.9668 14.3877 25.6116 15.0329 26.4071 15.0329Z" fill="#B5B9E7"/>
<path d="M8 20C8 23.2618 8.0144 23.6701 8.07201 24.948C8.12963 26.2258 8.33607 27.1001 8.62893 27.8639C8.93619 28.6517 9.34427 29.3243 10.0116 29.9872C10.6741 30.6501 11.3463 31.0681 12.1336 31.3707C12.897 31.6685 13.7708 31.8703 15.0478 31.9279C16.3297 31.9856 16.7377 32 19.9928 32C23.2527 32 23.6607 31.9856 24.9378 31.9279C26.2148 31.8703 27.0886 31.6637 27.852 31.3707C28.6393 31.0633 29.3115 30.6549 29.974 29.9872C30.6365 29.3243 31.0542 28.6517 31.3567 27.8639C31.6543 27.1001 31.856 26.2258 31.9136 24.948C31.9712 23.6653 31.9856 23.257 31.9856 20C31.9856 16.7382 31.9712 16.3299 31.9136 15.052C31.856 13.7742 31.6495 12.8999 31.3567 12.1361C31.0494 11.3483 30.6413 10.6757 29.974 10.0128C29.3163 9.34508 28.6441 8.93195 27.8568 8.6293C27.0934 8.33147 26.2196 8.1297 24.9426 8.07206C23.6607 8.01441 23.2527 8 19.9976 8C16.7377 8 16.3297 8.01441 15.0526 8.07206C13.7756 8.1297 12.9018 8.33627 12.1384 8.6293C11.3511 8.93675 10.6789 9.34508 10.0164 10.0128C9.35387 10.6805 8.93619 11.3483 8.63373 12.1361C8.33607 12.8999 8.12963 13.7742 8.07201 15.052C8.0144 16.3299 8 16.7382 8 20ZM10.1652 20C10.1652 16.7958 10.1796 16.4115 10.2372 15.1481C10.2901 13.976 10.4869 13.3371 10.6501 12.9191C10.8662 12.3619 11.1302 11.9584 11.5527 11.5356C11.9752 11.1129 12.3737 10.8583 12.9354 10.6325C13.3579 10.4692 13.9964 10.2722 15.163 10.2194C16.4257 10.1617 16.805 10.1473 20.012 10.1473C23.219 10.1473 23.5983 10.1617 24.861 10.2194C26.0324 10.2722 26.6709 10.4692 27.0886 10.6325C27.6455 10.8487 28.0488 11.1129 28.4713 11.5356C28.8938 11.9584 29.1482 12.3571 29.3739 12.9191C29.5371 13.3419 29.7339 13.9808 29.7868 15.1481C29.8444 16.4115 29.8588 16.791 29.8588 20C29.8588 23.209 29.8444 23.5885 29.7868 24.8519C29.7339 26.024 29.5371 26.6629 29.3739 27.0809C29.1578 27.6381 28.8938 28.0416 28.4713 28.4644C28.0488 28.8871 27.6503 29.1417 27.0886 29.3675C26.6661 29.5308 26.0276 29.7278 24.861 29.7806C23.5983 29.8383 23.219 29.8527 20.012 29.8527C16.805 29.8527 16.4257 29.8383 15.163 29.7806C13.9916 29.7278 13.3531 29.5308 12.9354 29.3675C12.3785 29.1513 11.9752 28.8871 11.5527 28.4644C11.1302 28.0416 10.8758 27.6429 10.6501 27.0809C10.4869 26.6581 10.2901 26.0192 10.2372 24.8519C10.1748 23.5885 10.1652 23.2042 10.1652 20Z" fill="#B5B9E7"/>
</svg>
